<svg width="21" height="21" viewBox="0 0 21 21" fill="none" xmlns="http://www.w3.org/2000/svg">
<path d="M17.9246 3.07535C15.9414 1.09221 13.3046 0 10.5 0C7.69531 0 5.0585 1.09221 3.07535 3.07535C1.09216 5.05854 0 7.69535 0 10.5C0 13.3046 1.09216 15.9414 3.07535 17.9246C5.05854 19.9078 7.69531 21 10.5 21C13.3046 21 15.9414 19.9078 17.9246 17.9246C19.9078 15.9414 21 13.3046 21 10.5C21 7.69535 19.9078 5.05858 17.9246 3.07535ZM10.5 19.7695C5.38876 19.7695 1.23047 15.6112 1.23047 10.5C1.23047 5.38876 5.38876 1.23047 10.5 1.23047C15.6112 1.23047 19.7695 5.38876 19.7695 10.5C19.7695 15.6112 15.6112 19.7695 10.5 19.7695Z" fill="#60A6DA"/>
<path d="M15.5163 7.13094C15.2761 6.89075 14.8865 6.89075 14.6463 7.13098L9.21338 12.5639L6.35349 9.70397C6.11326 9.46375 5.72369 9.46375 5.48342 9.70397C5.24316 9.9442 5.24316 10.3338 5.48342 10.574L8.77833 13.8689C8.89847 13.9891 9.05593 14.0491 9.21334 14.0491C9.37076 14.0491 9.52826 13.989 9.64836 13.8689L15.5163 8.00101C15.7566 7.76078 15.7566 7.37121 15.5163 7.13094Z" fill="#60A6DA"/>
</svg>
