<svg width="75" height="75" viewBox="0 0 75 75" fill="none" xmlns="http://www.w3.org/2000/svg">
<path d="M37.5 0C27.3125 0 26.0406 0.046875 22.0406 0.225C18.0469 0.4125 15.3281 1.04063 12.9375 1.96875C10.4719 2.925 8.37812 4.20937 6.29375 6.29375C4.20937 8.37812 2.92188 10.4688 1.96875 12.9375C1.04063 15.3281 0.409375 18.0469 0.225 22.0406C0.0375 26.0406 0 27.3125 0 37.5C0 47.6875 0.046875 48.9594 0.225 52.9594C0.4125 56.95 1.04063 59.6719 1.96875 62.0625C2.925 64.525 4.20937 66.6219 6.29375 68.7063C8.37812 70.7875 10.4688 72.0781 12.9375 73.0312C15.3312 73.9563 18.05 74.5906 22.0406 74.775C26.0406 74.9625 27.3125 75 37.5 75C47.6875 75 48.9594 74.9531 52.9594 74.775C56.95 74.5875 59.6719 73.9563 62.0625 73.0312C64.525 72.075 66.6219 70.7875 68.7063 68.7063C70.7875 66.6219 72.0781 64.5344 73.0312 62.0625C73.9563 59.6719 74.5906 56.95 74.775 52.9594C74.9625 48.9594 75 47.6875 75 37.5C75 27.3125 74.9531 26.0406 74.775 22.0406C74.5875 18.05 73.9563 15.325 73.0312 12.9375C72.075 10.4719 70.7875 8.37812 68.7063 6.29375C66.6219 4.20937 64.5344 2.92188 62.0625 1.96875C59.6719 1.04063 56.95 0.409375 52.9594 0.225C48.9594 0.0375 47.6875 0 37.5 0ZM37.5 6.75C47.5094 6.75 48.7031 6.8 52.6562 6.97187C56.3125 7.14375 58.2969 7.75 59.6156 8.26875C61.3719 8.94687 62.6156 9.75938 63.9344 11.0688C65.2437 12.3813 66.0563 13.6281 66.7344 15.3844C67.2469 16.7031 67.8594 18.6875 68.025 22.3438C68.2031 26.3 68.2438 27.4875 68.2438 37.5C68.2438 47.5125 68.1969 48.7031 68.0125 52.6562C67.8219 56.3125 67.2125 58.2969 66.6969 59.6156C65.9969 61.3719 65.2 62.6156 63.8875 63.9344C62.5781 65.2437 61.3125 66.0563 59.575 66.7344C58.2625 67.2469 56.2469 67.8594 52.5906 68.025C48.6094 68.2031 47.4375 68.2438 37.4062 68.2438C27.3719 68.2438 26.2 68.1969 22.2219 68.0125C18.5625 67.8219 16.5469 67.2125 15.2344 66.6969C13.4562 65.9969 12.2344 65.2 10.925 63.8875C9.60938 62.5781 8.76875 61.3125 8.1125 59.575C7.59688 58.2625 6.99063 56.2469 6.8 52.5906C6.65938 48.6531 6.60938 47.4375 6.60938 37.4531C6.60938 27.4656 6.65938 26.2469 6.8 22.2625C6.99063 18.6063 7.59688 16.5938 8.1125 15.2812C8.76875 13.5 9.60938 12.2812 10.925 10.9656C12.2344 9.65625 13.4562 8.8125 15.2344 8.15938C16.5469 7.64063 18.5188 7.03125 22.175 6.84375C26.1594 6.70312 27.3312 6.65625 37.3594 6.65625L37.5 6.75V6.75ZM37.5 18.2437C26.8594 18.2437 18.2437 26.8688 18.2437 37.5C18.2437 48.1406 26.8688 56.7563 37.5 56.7563C48.1406 56.7563 56.7563 48.1312 56.7563 37.5C56.7563 26.8594 48.1312 18.2437 37.5 18.2437ZM37.5 50C30.5938 50 25 44.4062 25 37.5C25 30.5938 30.5938 25 37.5 25C44.4062 25 50 30.5938 50 37.5C50 44.4062 44.4062 50 37.5 50ZM62.0188 17.4844C62.0188 19.9688 60 21.9844 57.5187 21.9844C55.0344 21.9844 53.0187 19.9656 53.0187 17.4844C53.0187 15.0031 55.0375 12.9875 57.5187 12.9875C59.9969 12.9844 62.0188 15.0031 62.0188 17.4844Z" fill="#61A5D9"/>
</svg>
