<svg width="50" height="42" viewBox="0 0 50 42" fill="none" xmlns="http://www.w3.org/2000/svg">
<path d="M49.1667 34.5333H45.8333V2.8C45.8325 2.05766 45.5689 1.34597 45.1002 0.821056C44.6315 0.296141 43.9961 0.000864552 43.3333 0H6.66669C6.00388 0.000864552 5.36845 0.296141 4.89978 0.821056C4.43111 1.34597 4.16746 2.05766 4.16669 2.8V34.5333H0.833313C0.612299 34.5333 0.40036 34.6317 0.24408 34.8067C0.0877993 34.9817 0 35.2191 0 35.4667V37.5667C0.00118553 38.7421 0.418631 39.8689 1.16071 40.7C1.90278 41.5312 2.90886 41.9987 3.95831 42H46.0417C47.0911 41.9987 48.0972 41.5312 48.8393 40.7C49.5814 39.8689 49.9988 38.7421 50 37.5667V35.4667C50 35.2191 49.9122 34.9817 49.7559 34.8067C49.5996 34.6317 49.3877 34.5333 49.1667 34.5333ZM5.83331 2.8C5.83356 2.55255 5.92147 2.31531 6.0777 2.14034C6.23392 1.96537 6.44575 1.86694 6.66669 1.86667H43.3333C43.5543 1.86694 43.7661 1.96537 43.9223 2.14034C44.0785 2.31531 44.1664 2.55255 44.1667 2.8V34.5333H30.8333C30.7239 34.5333 30.6155 34.5575 30.5144 34.6044C30.4133 34.6513 30.3215 34.72 30.2441 34.8067L28.8215 36.4H21.1785L19.7559 34.8067C19.6785 34.72 19.5867 34.6513 19.4856 34.6044C19.3845 34.5575 19.2761 34.5333 19.1667 34.5333H5.83331V2.8ZM48.3333 37.5667C48.3326 38.2472 48.091 38.8995 47.6614 39.3807C47.2318 39.8619 46.6493 40.1326 46.0417 40.1333H3.95831C3.35074 40.1326 2.76824 39.8619 2.33862 39.3807C1.909 38.8995 1.66738 38.2472 1.66669 37.5667V36.4H18.8215L20.2441 37.9933C20.3215 38.08 20.4133 38.1487 20.5144 38.1956C20.6155 38.2425 20.7239 38.2667 20.8333 38.2667H29.1667C29.2761 38.2667 29.3845 38.2425 29.4856 38.1956C29.5867 38.1487 29.6785 38.08 29.7559 37.9933L31.1785 36.4H48.3333V37.5667Z" fill="#6ACDEF"/>
<path d="M42.5 31.7333V4.66661C42.5 4.41907 42.4122 4.18168 42.2559 4.00664C42.0996 3.83161 41.8877 3.73328 41.6667 3.73328H8.33331C8.1123 3.73328 7.90036 3.83161 7.74408 4.00664C7.5878 4.18168 7.5 4.41907 7.5 4.66661V31.7333C7.5 31.9808 7.5878 32.2182 7.74408 32.3932C7.90036 32.5683 8.1123 32.6666 8.33331 32.6666H41.6667C41.8877 32.6666 42.0996 32.5683 42.2559 32.3932C42.4122 32.2182 42.5 31.9808 42.5 31.7333ZM40.8333 30.7999H9.16669V5.59994H40.8333V30.7999Z" fill="#6ACDEF"/>
<path d="M15.8333 28.9333H36.6667C36.8877 28.9333 37.0996 28.835 37.2559 28.66C37.4122 28.4849 37.5 28.2475 37.5 28V22.4C37.5 22.1525 37.4122 21.9151 37.2559 21.74C37.0996 21.565 36.8877 21.4667 36.6667 21.4667H15.8333C15.6123 21.4667 15.4004 21.565 15.2441 21.74C15.0878 21.9151 15 22.1525 15 22.4V28C15 28.2475 15.0878 28.4849 15.2441 28.66C15.4004 28.835 15.6123 28.9333 15.8333 28.9333ZM32.5 23.3333H35.8333V27.0667H32.5V23.3333ZM16.6667 23.3333H30.8333V27.0667H16.6667V23.3333Z" fill="#6ACDEF"/>
<path d="M19.1667 24.2667H18.3333C18.1123 24.2667 17.9004 24.3651 17.7441 24.5401C17.5878 24.7151 17.5 24.9525 17.5 25.2001C17.5 25.4476 17.5878 25.685 17.7441 25.86C17.9004 26.0351 18.1123 26.1334 18.3333 26.1334H19.1667C19.3877 26.1334 19.5996 26.0351 19.7559 25.86C19.9122 25.685 20 25.4476 20 25.2001C20 24.9525 19.9122 24.7151 19.7559 24.5401C19.5996 24.3651 19.3877 24.2667 19.1667 24.2667Z" fill="#6ACDEF"/>
<path d="M22.5 24.2667H21.6667C21.4457 24.2667 21.2337 24.3651 21.0774 24.5401C20.9211 24.7151 20.8334 24.9525 20.8334 25.2001C20.8334 25.4476 20.9211 25.685 21.0774 25.86C21.2337 26.0351 21.4457 26.1334 21.6667 26.1334H22.5C22.721 26.1334 22.933 26.0351 23.0893 25.86C23.2456 25.685 23.3334 25.4476 23.3334 25.2001C23.3334 24.9525 23.2456 24.7151 23.0893 24.5401C22.933 24.3651 22.721 24.2667 22.5 24.2667Z" fill="#6ACDEF"/>
<path d="M25.8333 24.2667H25C24.779 24.2667 24.567 24.3651 24.4108 24.5401C24.2545 24.7151 24.1667 24.9525 24.1667 25.2001C24.1667 25.4476 24.2545 25.685 24.4108 25.86C24.567 26.0351 24.779 26.1334 25 26.1334H25.8333C26.0543 26.1334 26.2663 26.0351 26.4226 25.86C26.5789 25.685 26.6667 25.4476 26.6667 25.2001C26.6667 24.9525 26.5789 24.7151 26.4226 24.5401C26.2663 24.3651 26.0543 24.2667 25.8333 24.2667Z" fill="#6ACDEF"/>
<path d="M29.1667 24.2667H28.3333C28.1123 24.2667 27.9004 24.3651 27.7441 24.5401C27.5878 24.7151 27.5 24.9525 27.5 25.2001C27.5 25.4476 27.5878 25.685 27.7441 25.86C27.9004 26.0351 28.1123 26.1334 28.3333 26.1334H29.1667C29.3877 26.1334 29.5996 26.0351 29.7559 25.86C29.9122 25.685 30 25.4476 30 25.2001C30 24.9525 29.9122 24.7151 29.7559 24.5401C29.5996 24.3651 29.3877 24.2667 29.1667 24.2667Z" fill="#6ACDEF"/>
<path d="M13.5883 16.8634C13.7414 16.8633 13.8915 16.8159 14.0222 16.7265C14.1528 16.6371 14.259 16.509 14.329 16.3565C14.3989 16.2039 14.43 16.0327 14.4188 15.8617C14.4075 15.6906 14.3544 15.5263 14.2653 15.3869C13.6593 14.4378 13.3334 13.3001 13.3334 12.1333C13.3334 10.9664 13.6593 9.8288 14.2653 8.87968C14.3306 8.78011 14.3776 8.66702 14.4035 8.54696C14.4295 8.42691 14.4339 8.30228 14.4165 8.1803C14.3991 8.05832 14.3603 7.94142 14.3022 7.83638C14.2442 7.73133 14.1682 7.64022 14.0785 7.56835C13.9888 7.49647 13.8873 7.44524 13.7798 7.41764C13.6723 7.39004 13.561 7.38661 13.4523 7.40756C13.3436 7.4285 13.2397 7.4734 13.1466 7.53966C13.0535 7.60591 12.9731 7.6922 12.91 7.79351C12.1014 9.05945 11.6666 10.577 11.6666 12.1335C11.6666 13.69 12.1014 15.2076 12.91 16.4735C12.9872 16.5943 13.0889 16.6928 13.2069 16.7606C13.3249 16.8284 13.4556 16.8637 13.5883 16.8634Z" fill="#6ACDEF"/>
<path d="M16.6126 14.9273C16.7657 14.9272 16.9159 14.8798 17.0466 14.7903C17.1772 14.7009 17.2834 14.5729 17.3533 14.4203C17.4233 14.2678 17.4543 14.0966 17.4431 13.9255C17.4319 13.7545 17.3788 13.5902 17.2897 13.4507C17.0878 13.1345 16.9793 12.7554 16.9793 12.3667C16.9793 11.9779 17.0878 11.5989 17.2897 11.2826C17.3545 11.183 17.4011 11.07 17.4267 10.9501C17.4523 10.8303 17.4564 10.7059 17.4389 10.5843C17.4214 10.4626 17.3826 10.346 17.3246 10.2412C17.2666 10.1365 17.1907 10.0456 17.1012 9.97389C17.0117 9.90217 16.9105 9.851 16.8032 9.82335C16.696 9.7957 16.5849 9.79211 16.4764 9.81279C16.3679 9.83347 16.2642 9.87801 16.1711 9.94384C16.0781 10.0097 15.9977 10.0955 15.9344 10.1963C15.53 10.8294 15.3126 11.5883 15.3126 12.3667C15.3126 13.1451 15.53 13.9039 15.9344 14.537C16.0115 14.6579 16.1133 14.7564 16.2313 14.8243C16.3492 14.8921 16.48 14.9275 16.6126 14.9273Z" fill="#6ACDEF"/>
<path d="M31.2583 11.3316C31.2542 11.3288 31.251 11.3257 31.2468 11.323L25.4135 7.58964C25.2875 7.50906 25.145 7.46667 25 7.46667C24.855 7.46667 24.7125 7.50906 24.5865 7.58964L18.7532 11.323C18.6257 11.4046 18.5197 11.5226 18.4459 11.6649C18.3722 11.8072 18.3333 11.9688 18.3333 12.1333C18.3333 12.2979 18.3722 12.4595 18.4459 12.6018C18.5197 12.7441 18.6257 12.8621 18.7532 12.9437L20.8333 14.275V18.2067C20.8333 18.4148 20.8955 18.6169 21.0099 18.781C21.1243 18.945 21.2843 19.0615 21.4646 19.112C23.7861 19.7597 26.2139 19.7597 28.5354 19.112C28.7157 19.0615 28.8757 18.945 28.9901 18.781C29.1045 18.6169 29.1667 18.4148 29.1667 18.2067V14.275L30 13.7417V15.8667C30 16.1142 30.0878 16.3516 30.2441 16.5266C30.4004 16.7017 30.6123 16.8 30.8333 16.8C31.0543 16.8 31.2663 16.7017 31.4226 16.5266C31.5789 16.3516 31.6667 16.1142 31.6667 15.8667V12.1333C31.6667 11.9715 31.629 11.8125 31.5574 11.6719C31.4858 11.5313 31.3827 11.414 31.2583 11.3316ZM25 9.47497L27.6954 11.2H25C24.779 11.2 24.567 11.2983 24.4108 11.4734C24.2545 11.6484 24.1667 11.8858 24.1667 12.1333C24.1667 12.3809 24.2545 12.6183 24.4108 12.7933C24.567 12.9683 24.779 13.0667 25 13.0667H27.6163C27.6038 13.09 27.5923 13.1145 27.5817 13.1395L25 14.7917L20.8463 12.1333L25 9.47497ZM27.5 17.4594C25.8491 17.8227 24.1509 17.8227 22.5 17.4594V15.3417L24.5865 16.677C24.7125 16.7576 24.855 16.8 25 16.8C25.145 16.8 25.2875 16.7576 25.4135 16.677L27.5 15.3417V17.4594Z" fill="#6ACDEF"/>
</svg>
