<svg width="50" height="50" viewBox="0 0 50 50" fill="none" xmlns="http://www.w3.org/2000/svg">
<path d="M50 33.8379C50 26.5499 45.0893 20.1824 38.1645 18.2636C37.7293 8.1192 29.3415 0 19.0918 0C8.56438 0 0 8.56438 0 19.0918C0 22.5227 0.913239 25.8633 2.6474 28.796L0.0701904 38.113L9.38759 35.5362C12.0834 37.1304 15.1245 38.0283 18.2632 38.1638C20.1817 45.089 26.5495 50 33.8379 50C36.747 50 39.576 49.2252 42.0616 47.7531L49.9294 49.9294L47.7531 42.0616C49.2252 39.576 50 36.747 50 33.8379ZM9.84993 32.3685L4.27208 33.9115L5.81512 28.3337L5.46341 27.7836C3.80592 25.1904 2.92969 22.1848 2.92969 19.0918C2.92969 10.1799 10.1799 2.92969 19.0918 2.92969C28.0037 2.92969 35.2539 10.1799 35.2539 19.0918C35.2539 28.0037 28.0037 35.2539 19.0918 35.2539C15.9988 35.2539 12.9936 34.3777 10.4 32.7202L9.84993 32.3685ZM45.7279 45.7279L41.589 44.5827L41.0362 44.9425C38.8935 46.3345 36.404 47.0703 33.8379 47.0703C28.1097 47.0703 23.0762 43.3666 21.2929 38.0558C30.0644 37.0445 37.0445 30.0644 38.0562 21.2925C43.3666 23.0762 47.0703 28.1097 47.0703 33.8379C47.0703 36.404 46.3345 38.8935 44.9425 41.0362L44.5827 41.589L45.7279 45.7279Z" fill="#6ACDEF"/>
<path d="M17.6471 26.4706H20.5882V29.4118H17.6471V26.4706Z" fill="#6ACDEF"/>
<path d="M22.2689 14.6669C22.2689 15.4966 21.9288 16.2624 21.3115 16.8235L17.8571 19.9644V23.5294H20.7983V21.251L23.2972 18.9791C24.5127 17.8739 25.2101 16.3023 25.2101 14.6669C25.2101 11.4446 22.5714 8.82349 19.3277 8.82349C16.084 8.82349 13.4454 11.4446 13.4454 14.6669H16.3866C16.3866 13.0558 17.7059 11.7452 19.3277 11.7452C20.9496 11.7452 22.2689 13.0558 22.2689 14.6669Z" fill="#6ACDEF"/>
</svg>
