<svg width="50" height="50" viewBox="0 0 50 50" fill="none" xmlns="http://www.w3.org/2000/svg">
<path d="M16.8922 39.1403C13.8867 39.1403 11.4504 41.5713 11.4504 44.5701C11.4504 47.569 13.8867 50 16.8922 50C19.8976 50 22.334 47.569 22.334 44.5701C22.334 41.5713 19.8976 39.1403 16.8922 39.1403ZM16.8922 47.7375C15.139 47.7375 13.7178 46.3194 13.7178 44.5701C13.7178 42.8208 15.139 41.4027 16.8922 41.4027C18.6453 41.4027 20.0666 42.8208 20.0666 44.5701C20.0667 46.3194 18.6454 47.7375 16.8922 47.7375Z" fill="#6ACDEF"/>
<path d="M37.3557 39.1403C34.3503 39.1403 31.9139 41.5713 31.9139 44.5701C31.9139 47.569 34.3503 50 37.3557 50C40.3612 50 42.7975 47.569 42.7975 44.5701C42.7975 41.5713 40.3611 39.1403 37.3557 39.1403ZM37.3557 47.7375C35.6026 47.7375 34.1814 46.3194 34.1814 44.5701C34.1814 42.8208 35.6026 41.4027 37.3557 41.4027C39.1089 41.4027 40.5301 42.8208 40.5301 44.5701C40.5301 46.3194 39.1089 47.7375 37.3557 47.7375Z" fill="#6ACDEF"/>
<path d="M49.7698 7.91856C49.5625 7.60926 49.2323 7.40335 48.8629 7.35301H10.7135C9.80652 2.828 5.89522 0 1.2471 0H1.1337C0.507547 0 0 0.506447 0 1.13122C0 1.756 0.507547 2.26245 1.1337 2.26245H1.2471C4.82238 2.18537 7.91232 4.7386 8.50278 8.25797L12.2441 30.0905C12.8237 33.3168 15.6481 35.6574 18.933 35.6335H41.6638C42.29 35.6335 42.7975 35.127 42.7975 34.5023C42.7975 33.8775 42.29 33.371 41.6638 33.371H18.933C16.7618 33.4302 14.8773 31.8874 14.5115 29.7511L14.2281 28.2805H39.4532C42.5309 28.2181 45.2034 26.1491 46.0287 23.19L49.9399 8.99317C50.0606 8.62865 49.9973 8.2283 49.7698 7.91856ZM43.8179 22.7375C43.2607 24.6811 41.479 26.0202 39.453 26.018H13.8312L12.1873 16.4027H45.575L43.8179 22.7375ZM46.2553 14.1402H11.7905L11.1104 9.61535H47.389L46.2553 14.1402Z" fill="#6ACDEF"/>
</svg>
