<svg width="80" height="64" viewBox="0 0 80 64" fill="none" xmlns="http://www.w3.org/2000/svg">
<path d="M79.8433 7.58867C76.8935 8.85944 73.7436 9.72513 70.4271 10.1204C73.8069 8.12442 76.4068 4.97854 77.6368 1.22503C74.4669 3.03808 70.9537 4.35785 67.2139 5.09287C64.2273 1.96005 59.9708 0 55.2444 0C46.1881 0 38.845 7.19666 38.845 16.0626C38.845 17.3367 38.995 18.5617 39.2684 19.7345C25.6356 19.104 13.5528 12.6881 5.46644 2.98908C4.04316 5.34768 3.24653 8.08849 3.24653 11.0743C3.24653 16.6605 6.14641 21.5704 10.5396 24.4549C7.84967 24.37 5.31978 23.6448 3.1132 22.4426V22.6419C3.1132 30.4331 8.7563 36.9307 16.266 38.4105C14.8894 38.7731 13.4361 38.9691 11.9462 38.9691C10.8995 38.9691 9.89625 38.8711 8.89296 38.6882C10.9962 45.0682 17.0426 49.72 24.239 49.8507C18.6392 54.1595 11.5429 56.7272 3.89984 56.7272C2.59989 56.7272 1.30328 56.6521 0 56.5083C7.29636 61.0622 15.8927 63.7246 25.189 63.7246C55.3677 63.7246 71.8503 39.237 71.8503 18.0358C71.8503 17.353 71.8503 16.6637 71.8003 15.9777C75.0035 13.7269 77.8001 10.8816 80 7.65401L79.8433 7.58867Z" fill="#61A5D9"/>
</svg>
